<svg width="117" height="60" viewBox="0 0 117 60" fill="none" xmlns="http://www.w3.org/2000/svg">
<path d="M7.90958 25.3097C17.8614 28.2568 25.675 25.6643 28.1819 17.5693C30.5359 9.96805 25.356 3.12868 17.8614 0C27.5676 1.22862 33.3621 7.26128 31.1306 17.5693C28.8991 27.8774 14.224 31.6078 7.90958 25.3097Z" fill="#D52B1E"/>
<path d="M12.4555 3.07156C12.0249 2.00182 12.9469 0.860037 12.9469 0.860037C12.9469 0.860037 10.6126 1.59721 10.3668 3.07156C10.1211 4.54591 12.7012 5.03736 12.7012 5.03736C14.7462 5.4297 16.6328 5.65168 17.8614 5.40595C19.0901 5.16022 20.271 4.69557 21.3016 3.80874C21.3016 3.80874 19.2435 4.58185 17.8614 4.66878C16.0112 4.78515 12.8861 4.14131 12.4555 3.07156Z" fill="#D52B1E"/>
<path d="M26.2161 9.33755L25.9704 7.98606C25.9704 7.98606 24.0249 8.36838 22.7759 8.60038C20.7232 8.98166 16.9299 8.98861 16.51 8.96896C14.31 8.77088 12.9218 8.48329 10.244 7.74034C9.25012 7.38144 7.86069 6.33862 7.90958 5.28309C7.9335 4.76687 8.40103 4.05446 8.40103 4.05446C8.40103 4.05446 7.3184 4.88009 7.04955 5.65168C6.52689 7.15167 7.61059 8.25136 8.76962 9.33755C9.96612 10.4588 12.7012 10.8119 12.7012 10.8119C12.7012 10.8119 12.9469 11.0576 16.2642 11.1805C19.5815 11.3033 22.7759 10.4433 22.7759 10.4433L26.2161 9.33755Z" fill="#D52B1E"/>
<path d="M15.8956 14.0063C9.16412 13.5234 5.94378 11.9177 4.83802 8.72324C4.5923 9.46041 4.60111 10.2796 4.71516 11.4262C5.63845 15.1347 14.2984 16.5864 15.8956 16.5864C17.4929 16.5864 20.087 16.6494 22.7759 16.3407C24.5337 15.95 25.4866 15.674 27.0761 14.9892V12.9006C25.2419 13.2967 23.7588 13.7606 22.4074 14.0063C21.0559 14.2521 18.3988 13.9828 15.8956 14.0063Z" fill="#D52B1E"/>
<path d="M24.7417 21.0095L26.2161 17.9379C25.1788 18.4352 25.1103 18.5522 23.7588 18.9208C22.4074 19.2894 21.9835 19.4789 20.8101 19.658C18.9129 19.9477 17.7115 19.7284 15.8956 19.658C14.0798 19.5876 9.99825 18.5522 9.99825 18.5522C8.32195 18.0615 5.82092 16.3407 5.82092 16.3407C5.82092 16.3407 4.1842 14.9894 3.48653 13.392C3.55165 15.0515 3.56677 16.1573 4.46943 17.5693C5.33315 18.9204 6.42242 19.496 7.66386 20.1494C9.8799 21.1735 10.9735 21.3911 13.1927 21.7467C15.2321 22.0734 18.4758 21.9924 18.4758 21.9924C18.4758 21.9924 22.5283 21.7516 24.7417 21.0095Z" fill="#D52B1E"/>
<path d="M9.13821 23.221C7.53014 22.6108 5.20661 21.1323 5.20661 21.1323C6.70072 23.468 7.22831 24.8814 13.3155 25.6783C17.8581 25.8598 19.6667 25.1837 22.4074 23.4667C22.4074 23.4667 19.0901 24.081 16.7557 24.2039C15.3629 24.2772 14.575 24.267 13.1927 24.081C11.5885 23.8652 10.6515 23.7953 9.13821 23.221Z" fill="#D52B1E"/>
<path d="M12.5932 2.90829C12.1626 1.83854 12.9937 0.751465 12.9937 0.751465C12.9937 0.751465 10.4589 1.73891 10.2132 3.21326C9.96748 4.68761 12.5476 5.17906 12.5476 5.17906C14.5926 5.5714 16.4792 5.79337 17.7078 5.54765C18.9364 5.30192 20.5018 4.75577 21.5029 3.75469C21.5029 3.75469 19.3812 4.41858 17.9991 4.5055C16.1488 4.62187 13.0237 3.97804 12.5932 2.90829Z" fill="#6B6F70"/>
<path d="M15.742 13.6475C9.01049 13.1645 5.79016 11.5588 4.6844 8.36439C4.43867 9.10157 4.44748 10.4213 4.56153 11.5679C5.48482 15.2764 14.1448 16.7281 15.742 16.7281C17.3392 16.7281 19.9334 16.7911 22.6223 16.4824C24.3801 16.0917 25.8336 15.8157 27.423 15.1309V12.5417C25.5888 12.9379 23.6052 13.4018 22.2537 13.6475C20.9022 13.8932 18.2451 13.6239 15.742 13.6475Z" fill="#6B6F70"/>
<path d="M9.10745 23.1665C7.49937 22.5562 5.17585 21.0778 5.17585 21.0778C6.66996 23.4135 7.07469 25.0231 13.1619 25.82C17.7045 26.0015 19.8816 25.1491 22.6223 23.4321C22.6223 23.4321 19.0593 24.0265 16.7249 24.1494C15.3321 24.2227 14.5442 24.2125 13.1619 24.0265C11.5578 23.8107 10.6207 23.7407 9.10745 23.1665Z" fill="#6B6F70"/>
<path d="M104.422 22.4331H96.1447L94.8865 26.4214H88.0656L96.5751 1.97119H104.058L112.535 26.4214H105.681L104.422 22.4331ZM102.8 17.2309L100.284 9.32361L97.8003 17.2309H102.8Z" fill="#D52B1E"/>
<path d="M85.2667 1.97119V7.38146H75.9294V11.6819H82.8165V16.8494H75.9294V26.4214H69.4397V1.97119H85.2667Z" fill="#D52B1E"/>
<path d="M56.1306 7.41614V11.4045H63.5805V16.572H56.1306V20.9765H64.5739V26.4214H49.6408V1.97119H64.5739V7.41614H56.1306Z" fill="#D52B1E"/>
<path d="M44.2898 1.97119V26.4214H37.8V1.97119H44.2898Z" fill="#D52B1E"/>
<path d="M2.36664 35.5155V43.3926H0.786702V35.5155H2.36664ZM7.3922 37.0503C8.13703 37.0503 8.73891 37.2872 9.19784 37.7612C9.65678 38.2277 9.88625 38.8822 9.88625 39.7249V43.3926H8.30631V39.9393C8.30631 39.4427 8.18217 39.0628 7.93389 38.7995C7.68562 38.5286 7.34706 38.3932 6.91822 38.3932C6.48186 38.3932 6.13577 38.5286 5.87997 38.7995C5.6317 39.0628 5.50756 39.4427 5.50756 39.9393V43.3926H3.92762V37.1405H5.50756V37.9192C5.71822 37.6484 5.9853 37.4377 6.30881 37.2872C6.63985 37.1293 7.00098 37.0503 7.3922 37.0503ZM13.2282 38.4383V41.4628C13.2282 41.6735 13.2771 41.8277 13.3749 41.9255C13.4802 42.0158 13.6533 42.0609 13.894 42.0609H14.6276V43.3926H13.6345C12.3028 43.3926 11.637 42.7456 11.637 41.4515V38.4383H10.8921V37.1405H11.637V35.5945H13.2282V37.1405H14.6276V38.4383H13.2282ZM21.5758 40.1311C21.5758 40.3568 21.5608 40.56 21.5307 40.7405H16.9602C16.9978 41.192 17.1558 41.5456 17.4342 41.8014C17.7125 42.0572 18.0548 42.1851 18.4611 42.1851C19.0479 42.1851 19.4655 41.933 19.7138 41.4289H21.4179C21.2373 42.0308 20.8912 42.5274 20.3796 42.9186C19.868 43.3023 19.2398 43.4941 18.495 43.4941C17.8931 43.4941 17.3514 43.3625 16.8699 43.0992C16.3959 42.8283 16.0235 42.4484 15.7526 41.9593C15.4893 41.4703 15.3577 40.9061 15.3577 40.2666C15.3577 39.6195 15.4893 39.0515 15.7526 38.5625C16.016 38.0735 16.3846 37.6973 16.8586 37.434C17.3326 37.1706 17.878 37.039 18.495 37.039C19.0893 37.039 19.6197 37.1669 20.0862 37.4227C20.5602 37.6785 20.9251 38.0434 21.1809 38.5173C21.4442 38.9838 21.5758 39.5217 21.5758 40.1311ZM19.9395 39.6797C19.932 39.2735 19.7853 38.9499 19.4994 38.7092C19.2135 38.4609 18.8636 38.3368 18.4498 38.3368C18.0586 38.3368 17.7276 38.4572 17.4567 38.6979C17.1934 38.9311 17.0316 39.2584 16.9715 39.6797H19.9395ZM24.309 38.1111C24.5121 37.78 24.7755 37.5205 25.099 37.3324C25.43 37.1443 25.8062 37.0503 26.2275 37.0503V38.7092H25.8099C25.3134 38.7092 24.9372 38.8258 24.6814 39.059C24.4331 39.2923 24.309 39.6985 24.309 40.2778V43.3926H22.7291V37.1405H24.309V38.1111ZM30.7562 37.0503C31.5011 37.0503 32.1029 37.2872 32.5619 37.7612C33.0208 38.2277 33.2503 38.8822 33.2503 39.7249V43.3926H31.6703V39.9393C31.6703 39.4427 31.5462 39.0628 31.2979 38.7995C31.0497 38.5286 30.7111 38.3932 30.2823 38.3932C29.8459 38.3932 29.4998 38.5286 29.244 38.7995C28.9957 39.0628 28.8716 39.4427 28.8716 39.9393V43.3926H27.2917V37.1405H28.8716V37.9192C29.0823 37.6484 29.3493 37.4377 29.6729 37.2872C30.0039 37.1293 30.365 37.0503 30.7562 37.0503ZM34.3465 40.244C34.3465 39.612 34.4706 39.0515 34.7189 38.5625C34.9747 38.0735 35.317 37.6973 35.7458 37.434C36.1822 37.1706 36.6675 37.039 37.2016 37.039C37.6681 37.039 38.0744 37.133 38.4204 37.3211C38.774 37.5092 39.0562 37.7462 39.2668 38.0321V37.1405H40.8581V43.3926H39.2668V42.4785C39.0637 42.7719 38.7816 43.0164 38.4204 43.212C38.0668 43.4001 37.6568 43.4941 37.1903 43.4941C36.6637 43.4941 36.1822 43.3587 35.7458 43.0879C35.317 42.817 34.9747 42.4371 34.7189 41.9481C34.4706 41.4515 34.3465 40.8835 34.3465 40.244ZM39.2668 40.2666C39.2668 39.8829 39.1916 39.5556 39.0411 39.2847C38.8907 39.0064 38.6875 38.7957 38.4317 38.6528C38.1759 38.5023 37.9013 38.4271 37.6079 38.4271C37.3145 38.4271 37.0436 38.4985 36.7954 38.6415C36.5471 38.7844 36.3439 38.9951 36.186 39.2735C36.0355 39.5443 35.9602 39.8678 35.9602 40.244C35.9602 40.6202 36.0355 40.9512 36.186 41.2371C36.3439 41.5155 36.5471 41.7299 36.7954 41.8804C37.0512 42.0308 37.322 42.1061 37.6079 42.1061C37.9013 42.1061 38.1759 42.0346 38.4317 41.8916C38.6875 41.7412 38.8907 41.5305 39.0411 41.2597C39.1916 40.9813 39.2668 40.6503 39.2668 40.2666ZM44.2406 38.4383V41.4628C44.2406 41.6735 44.2895 41.8277 44.3874 41.9255C44.4927 42.0158 44.6657 42.0609 44.9065 42.0609H45.64V43.3926H44.6469C43.3153 43.3926 42.6494 42.7456 42.6494 41.4515V38.4383H41.9046V37.1405H42.6494V35.5945H44.2406V37.1405H45.64V38.4383H44.2406ZM47.5776 36.3957C47.2993 36.3957 47.066 36.3092 46.878 36.1361C46.6974 35.9556 46.6071 35.7336 46.6071 35.4703C46.6071 35.207 46.6974 34.9888 46.878 34.8158C47.066 34.6352 47.2993 34.5449 47.5776 34.5449C47.856 34.5449 48.0855 34.6352 48.266 34.8158C48.4541 34.9888 48.5482 35.207 48.5482 35.4703C48.5482 35.7336 48.4541 35.9556 48.266 36.1361C48.0855 36.3092 47.856 36.3957 47.5776 36.3957ZM48.3563 37.1405V43.3926H46.7764V37.1405H48.3563ZM52.6935 43.4941C52.0916 43.4941 51.5499 43.3625 51.0684 43.0992C50.5869 42.8283 50.207 42.4484 49.9286 41.9593C49.6577 41.4703 49.5223 40.9061 49.5223 40.2666C49.5223 39.6271 49.6615 39.0628 49.9399 38.5738C50.2258 38.0847 50.6132 37.7086 51.1023 37.4452C51.5913 37.1744 52.1367 37.039 52.7386 37.039C53.3405 37.039 53.886 37.1744 54.375 37.4452C54.864 37.7086 55.2477 38.0847 55.5261 38.5738C55.812 39.0628 55.9549 39.6271 55.9549 40.2666C55.9549 40.9061 55.8082 41.4703 55.5148 41.9593C55.2289 42.4484 54.8377 42.8283 54.3411 43.0992C53.8521 43.3625 53.3029 43.4941 52.6935 43.4941ZM52.6935 42.1173C52.9794 42.1173 53.2465 42.0496 53.4947 41.9142C53.7505 41.7713 53.9537 41.5606 54.1041 41.2822C54.2546 41.0039 54.3299 40.6653 54.3299 40.2666C54.3299 39.6722 54.1719 39.217 53.8559 38.901C53.5474 38.5775 53.1675 38.4158 52.7161 38.4158C52.2646 38.4158 51.8847 38.5775 51.5762 38.901C51.2753 39.217 51.1248 39.6722 51.1248 40.2666C51.1248 40.8609 51.2715 41.3198 51.565 41.6434C51.8659 41.9593 52.2421 42.1173 52.6935 42.1173ZM60.5785 37.0503C61.3233 37.0503 61.9252 37.2872 62.3841 37.7612C62.843 38.2277 63.0725 38.8822 63.0725 39.7249V43.3926H61.4926V39.9393C61.4926 39.4427 61.3684 39.0628 61.1201 38.7995C60.8719 38.5286 60.5333 38.3932 60.1045 38.3932C59.6681 38.3932 59.322 38.5286 59.0662 38.7995C58.8179 39.0628 58.6938 39.4427 58.6938 39.9393V43.3926H57.1139V37.1405H58.6938V37.9192C58.9045 37.6484 59.1716 37.4377 59.4951 37.2872C59.8261 37.1293 60.1872 37.0503 60.5785 37.0503ZM64.1687 40.244C64.1687 39.612 64.2928 39.0515 64.5411 38.5625C64.7969 38.0735 65.1392 37.6973 65.568 37.434C66.0044 37.1706 66.4897 37.039 67.0238 37.039C67.4903 37.039 67.8966 37.133 68.2427 37.3211C68.5963 37.5092 68.8784 37.7462 69.089 38.0321V37.1405H70.6803V43.3926H69.089V42.4785C68.8859 42.7719 68.6038 43.0164 68.2427 43.212C67.889 43.4001 67.479 43.4941 67.0126 43.4941C66.4859 43.4941 66.0044 43.3587 65.568 43.0879C65.1392 42.817 64.7969 42.4371 64.5411 41.9481C64.2928 41.4515 64.1687 40.8835 64.1687 40.244ZM69.089 40.2666C69.089 39.8829 69.0138 39.5556 68.8633 39.2847C68.7129 39.0064 68.5097 38.7957 68.2539 38.6528C67.9981 38.5023 67.7235 38.4271 67.4301 38.4271C67.1367 38.4271 66.8658 38.4985 66.6176 38.6415C66.3693 38.7844 66.1662 38.9951 66.0082 39.2735C65.8577 39.5443 65.7825 39.8678 65.7825 40.244C65.7825 40.6202 65.8577 40.9512 66.0082 41.2371C66.1662 41.5155 66.3693 41.7299 66.6176 41.8804C66.8734 42.0308 67.1442 42.1061 67.4301 42.1061C67.7235 42.1061 67.9981 42.0346 68.2539 41.8916C68.5097 41.7412 68.7129 41.5305 68.8633 41.2597C69.0138 40.9813 69.089 40.6503 69.089 40.2666ZM73.8033 35.0415V43.3926H72.2234V35.0415H73.8033ZM79.6333 36.7907V38.7656H82.2853V40.0183H79.6333V42.1061H82.6239V43.3926H78.0533V35.5042H82.6239V36.7907H79.6333ZM85.8992 38.4383V41.4628C85.8992 41.6735 85.9481 41.8277 86.0459 41.9255C86.1512 42.0158 86.3242 42.0609 86.565 42.0609H87.2985V43.3926H86.3054C84.9738 43.3926 84.3079 42.7456 84.3079 41.4515V38.4383H83.5631V37.1405H84.3079V35.5945H85.8992V37.1405H87.2985V38.4383H85.8992ZM91.9559 37.0503C92.4299 37.0503 92.8512 37.1556 93.2199 37.3662C93.5885 37.5694 93.8744 37.8741 94.0775 38.2803C94.2882 38.6791 94.3935 39.1606 94.3935 39.7249V43.3926H92.8136V39.9393C92.8136 39.4427 92.6895 39.0628 92.4412 38.7995C92.1929 38.5286 91.8543 38.3932 91.4255 38.3932C90.9891 38.3932 90.6431 38.5286 90.3873 38.7995C90.139 39.0628 90.0148 39.4427 90.0148 39.9393V43.3926H88.4349V35.0415H90.0148V37.9192C90.218 37.6484 90.4888 37.4377 90.8274 37.2872C91.1659 37.1293 91.5421 37.0503 91.9559 37.0503ZM96.6972 36.3957C96.4189 36.3957 96.1856 36.3092 95.9975 36.1361C95.817 35.9556 95.7267 35.7336 95.7267 35.4703C95.7267 35.207 95.817 34.9888 95.9975 34.8158C96.1856 34.6352 96.4189 34.5449 96.6972 34.5449C96.9756 34.5449 97.2051 34.6352 97.3856 34.8158C97.5737 34.9888 97.6678 35.207 97.6678 35.4703C97.6678 35.7336 97.5737 35.9556 97.3856 36.1361C97.2051 36.3092 96.9756 36.3957 96.6972 36.3957ZM97.4759 37.1405V43.3926H95.896V37.1405H97.4759ZM98.6306 40.2666C98.6306 39.6195 98.7623 39.0553 99.0256 38.5738C99.2889 38.0847 99.6538 37.7086 100.12 37.4452C100.587 37.1744 101.121 37.039 101.723 37.039C102.498 37.039 103.137 37.2346 103.641 37.6258C104.153 38.0095 104.495 38.5512 104.668 39.2509H102.964C102.874 38.98 102.72 38.7694 102.501 38.6189C102.291 38.4609 102.027 38.3819 101.712 38.3819C101.26 38.3819 100.903 38.5474 100.639 38.8785C100.376 39.202 100.244 39.6647 100.244 40.2666C100.244 40.8609 100.376 41.3236 100.639 41.6546C100.903 41.9782 101.26 42.1399 101.712 42.1399C102.351 42.1399 102.769 41.854 102.964 41.2822H104.668C104.495 41.9593 104.153 42.4973 103.641 42.896C103.13 43.2948 102.49 43.4941 101.723 43.4941C101.121 43.4941 100.587 43.3625 100.12 43.0992C99.6538 42.8283 99.2889 42.4521 99.0256 41.9706C98.7623 41.4816 98.6306 40.9136 98.6306 40.2666ZM105.419 40.244C105.419 39.612 105.544 39.0515 105.792 38.5625C106.048 38.0735 106.39 37.6973 106.819 37.434C107.255 37.1706 107.74 37.039 108.275 37.039C108.741 37.039 109.147 37.133 109.493 37.3211C109.847 37.5092 110.129 37.7462 110.34 38.0321V37.1405H111.931V43.3926H110.34V42.4785C110.137 42.7719 109.855 43.0164 109.493 43.212C109.14 43.4001 108.73 43.4941 108.263 43.4941C107.737 43.4941 107.255 43.3587 106.819 43.0879C106.39 42.817 106.048 42.4371 105.792 41.9481C105.544 41.4515 105.419 40.8835 105.419 40.244ZM110.34 40.2666C110.34 39.8829 110.265 39.5556 110.114 39.2847C109.964 39.0064 109.76 38.7957 109.505 38.6528C109.249 38.5023 108.974 38.4271 108.681 38.4271C108.387 38.4271 108.117 38.4985 107.868 38.6415C107.62 38.7844 107.417 38.9951 107.259 39.2735C107.108 39.5443 107.033 39.8678 107.033 40.244C107.033 40.6202 107.108 40.9512 107.259 41.2371C107.417 41.5155 107.62 41.7299 107.868 41.8804C108.124 42.0308 108.395 42.1061 108.681 42.1061C108.974 42.1061 109.249 42.0346 109.505 41.8916C109.76 41.7412 109.964 41.5305 110.114 41.2597C110.265 40.9813 110.34 40.6503 110.34 40.2666ZM115.054 35.0415V43.3926H113.474V35.0415H115.054ZM5.65065 48.5155V49.7907H2.36664V51.8108H4.88326V53.0634H2.36664V56.3926H0.786702V48.5155H5.65065ZM7.57224 49.3957C7.29387 49.3957 7.06064 49.3092 6.87255 49.1361C6.69198 48.9556 6.6017 48.7336 6.6017 48.4703C6.6017 48.207 6.69198 47.9888 6.87255 47.8158C7.06064 47.6352 7.29387 47.5449 7.57224 47.5449C7.85061 47.5449 8.08007 47.6352 8.26064 47.8158C8.44873 47.9888 8.54277 48.207 8.54277 48.4703C8.54277 48.7336 8.44873 48.9556 8.26064 49.1361C8.08007 49.3092 7.85061 49.3957 7.57224 49.3957ZM8.35092 50.1405V56.3926H6.77098V50.1405H8.35092ZM13.3765 50.0503C14.1213 50.0503 14.7232 50.2872 15.1821 50.7612C15.6411 51.2277 15.8705 51.8822 15.8705 52.7249V56.3926H14.2906V52.9393C14.2906 52.4427 14.1665 52.0628 13.9182 51.7995C13.6699 51.5286 13.3313 51.3932 12.9025 51.3932C12.4661 51.3932 12.1201 51.5286 11.8643 51.7995C11.616 52.0628 11.4918 52.4427 11.4918 52.9393V56.3926H9.9119V50.1405H11.4918V50.9192C11.7025 50.6484 11.9696 50.4377 12.2931 50.2872C12.6241 50.1293 12.9853 50.0503 13.3765 50.0503ZM16.9667 53.244C16.9667 52.612 17.0908 52.0515 17.3391 51.5625C17.5949 51.0735 17.9372 50.6973 18.3661 50.434C18.8024 50.1706 19.2877 50.039 19.8219 50.039C20.2883 50.039 20.6946 50.133 21.0407 50.3211C21.3943 50.5092 21.6764 50.7462 21.8871 51.0321V50.1405H23.4783V56.3926H21.8871V55.4785C21.6839 55.7719 21.4018 56.0164 21.0407 56.212C20.6871 56.4001 20.277 56.4941 19.8106 56.4941C19.2839 56.4941 18.8024 56.3587 18.3661 56.0879C17.9372 55.817 17.5949 55.4371 17.3391 54.9481C17.0908 54.4515 16.9667 53.8835 16.9667 53.244ZM21.8871 53.2666C21.8871 52.8829 21.8118 52.5556 21.6614 52.2847C21.5109 52.0064 21.3078 51.7957 21.052 51.6528C20.7962 51.5023 20.5216 51.4271 20.2281 51.4271C19.9347 51.4271 19.6639 51.4985 19.4156 51.6415C19.1673 51.7844 18.9642 51.9951 18.8062 52.2735C18.6557 52.5443 18.5805 52.8678 18.5805 53.244C18.5805 53.6202 18.6557 53.9512 18.8062 54.2371C18.9642 54.5155 19.1673 54.7299 19.4156 54.8804C19.6714 55.0308 19.9422 55.1061 20.2281 55.1061C20.5216 55.1061 20.7962 55.0346 21.052 54.8916C21.3078 54.7412 21.5109 54.5305 21.6614 54.2597C21.8118 53.9813 21.8871 53.6503 21.8871 53.2666ZM28.486 50.0503C29.2308 50.0503 29.8327 50.2872 30.2916 50.7612C30.7505 51.2277 30.98 51.8822 30.98 52.7249V56.3926H29.4001V52.9393C29.4001 52.4427 29.2759 52.0628 29.0277 51.7995C28.7794 51.5286 28.4408 51.3932 28.012 51.3932C27.5756 51.3932 27.2295 51.5286 26.9737 51.7995C26.7255 52.0628 26.6013 52.4427 26.6013 52.9393V56.3926H25.0214V50.1405H26.6013V50.9192C26.812 50.6484 27.0791 50.4377 27.4026 50.2872C27.7336 50.1293 28.0947 50.0503 28.486 50.0503ZM32.0762 53.2666C32.0762 52.6195 32.2078 52.0553 32.4712 51.5738C32.7345 51.0847 33.0994 50.7086 33.5658 50.4452C34.0323 50.1744 34.5665 50.039 35.1683 50.039C35.9433 50.039 36.5828 50.2346 37.0868 50.6258C37.5984 51.0095 37.9408 51.5512 38.1138 52.2509H36.4097C36.3194 51.98 36.1652 51.7694 35.947 51.6189C35.7364 51.4609 35.473 51.3819 35.1571 51.3819C34.7056 51.3819 34.3483 51.5474 34.085 51.8785C33.8216 52.202 33.69 52.6647 33.69 53.2666C33.69 53.8609 33.8216 54.3236 34.085 54.6546C34.3483 54.9782 34.7056 55.1399 35.1571 55.1399C35.7966 55.1399 36.2141 54.854 36.4097 54.2822H38.1138C37.9408 54.9593 37.5984 55.4973 37.0868 55.896C36.5752 56.2948 35.9357 56.4941 35.1683 56.4941C34.5665 56.4941 34.0323 56.3625 33.5658 56.0992C33.0994 55.8283 32.7345 55.4521 32.4712 54.9706C32.2078 54.4816 32.0762 53.9136 32.0762 53.2666ZM45.0832 53.1311C45.0832 53.3568 45.0681 53.56 45.038 53.7405H40.4675C40.5051 54.192 40.6631 54.5456 40.9415 54.8014C41.2198 55.0572 41.5622 55.1851 41.9684 55.1851C42.5553 55.1851 42.9728 54.933 43.2211 54.4289H44.9252C44.7446 55.0308 44.3985 55.5274 43.8869 55.9186C43.3753 56.3023 42.7471 56.4941 42.0023 56.4941C41.4004 56.4941 40.8587 56.3625 40.3772 56.0992C39.9032 55.8283 39.5308 55.4484 39.26 54.9593C38.9966 54.4703 38.865 53.9061 38.865 53.2666C38.865 52.6195 38.9966 52.0515 39.26 51.5625C39.5233 51.0735 39.8919 50.6973 40.3659 50.434C40.8399 50.1706 41.3853 50.039 42.0023 50.039C42.5966 50.039 43.127 50.1669 43.5935 50.4227C44.0675 50.6785 44.4324 51.0434 44.6882 51.5173C44.9515 51.9838 45.0832 52.5217 45.0832 53.1311ZM43.4468 52.6797C43.4393 52.2735 43.2926 51.9499 43.0067 51.7092C42.7208 51.4609 42.3709 51.3368 41.9571 51.3368C41.5659 51.3368 41.2349 51.4572 40.964 51.6979C40.7007 51.9311 40.539 52.2584 40.4788 52.6797H43.4468ZM53.7555 54.8916H50.6182L50.0991 56.3926H48.4402L51.2728 48.5042H53.1123L55.9449 56.3926H54.2747L53.7555 54.8916ZM53.3267 53.6277L52.1869 50.3324L51.0471 53.6277H53.3267ZM56.5974 53.2666C56.5974 52.6195 56.7291 52.0553 56.9924 51.5738C57.2557 51.0847 57.6206 50.7086 58.0871 50.4452C58.5535 50.1744 59.0877 50.039 59.6896 50.039C60.4645 50.039 61.104 50.2346 61.6081 50.6258C62.1197 51.0095 62.462 51.5512 62.635 52.2509H60.9309C60.8407 51.98 60.6864 51.7694 60.4682 51.6189C60.2576 51.4609 59.9943 51.3819 59.6783 51.3819C59.2269 51.3819 58.8695 51.5474 58.6062 51.8785C58.3429 52.202 58.2112 52.6647 58.2112 53.2666C58.2112 53.8609 58.3429 54.3236 58.6062 54.6546C58.8695 54.9782 59.2269 55.1399 59.6783 55.1399C60.3178 55.1399 60.7353 54.854 60.9309 54.2822H62.635C62.462 54.9593 62.1197 55.4973 61.6081 55.896C61.0965 56.2948 60.457 56.4941 59.6896 56.4941C59.0877 56.4941 58.5535 56.3625 58.0871 56.0992C57.6206 55.8283 57.2557 55.4521 56.9924 54.9706C56.7291 54.4816 56.5974 53.9136 56.5974 53.2666ZM63.3862 53.244C63.3862 52.612 63.5103 52.0515 63.7586 51.5625C64.0144 51.0735 64.3567 50.6973 64.7856 50.434C65.2219 50.1706 65.7072 50.039 66.2414 50.039C66.7078 50.039 67.1141 50.133 67.4602 50.3211C67.8138 50.5092 68.0959 50.7462 68.3066 51.0321V50.1405H69.8978V56.3926H68.3066V55.4785C68.1034 55.7719 67.8213 56.0164 67.4602 56.212C67.1066 56.4001 66.6965 56.4941 66.2301 56.4941C65.7034 56.4941 65.2219 56.3587 64.7856 56.0879C64.3567 55.817 64.0144 55.4371 63.7586 54.9481C63.5103 54.4515 63.3862 53.8835 63.3862 53.244ZM68.3066 53.2666C68.3066 52.8829 68.2313 52.5556 68.0809 52.2847C67.9304 52.0064 67.7273 51.7957 67.4715 51.6528C67.2157 51.5023 66.9411 51.4271 66.6476 51.4271C66.3542 51.4271 66.0834 51.4985 65.8351 51.6415C65.5868 51.7844 65.3837 51.9951 65.2257 52.2735C65.0752 52.5443 65 52.8678 65 53.244C65 53.6202 65.0752 53.9512 65.2257 54.2371C65.3837 54.5155 65.5868 54.7299 65.8351 54.8804C66.0909 55.0308 66.3617 55.1061 66.6476 55.1061C66.9411 55.1061 67.2157 55.0346 67.4715 54.8916C67.7273 54.7412 67.9304 54.5305 68.0809 54.2597C68.2313 53.9813 68.3066 53.6503 68.3066 53.2666ZM71.0346 53.244C71.0346 52.612 71.1587 52.0515 71.407 51.5625C71.6628 51.0735 72.0089 50.6973 72.4453 50.434C72.8816 50.1706 73.3669 50.039 73.9011 50.039C74.3073 50.039 74.6948 50.1293 75.0634 50.3098C75.4321 50.4829 75.7255 50.7161 75.9437 51.0095V48.0415H77.5462V56.3926H75.9437V55.4672C75.7481 55.7756 75.4735 56.0239 75.1199 56.212C74.7663 56.4001 74.3562 56.4941 73.8898 56.4941C73.3631 56.4941 72.8816 56.3587 72.4453 56.0879C72.0089 55.817 71.6628 55.4371 71.407 54.9481C71.1587 54.4515 71.0346 53.8835 71.0346 53.244ZM75.955 53.2666C75.955 52.8829 75.8798 52.5556 75.7293 52.2847C75.5788 52.0064 75.3757 51.7957 75.1199 51.6528C74.8641 51.5023 74.5895 51.4271 74.2961 51.4271C74.0026 51.4271 73.7318 51.4985 73.4835 51.6415C73.2352 51.7844 73.0321 51.9951 72.8741 52.2735C72.7236 52.5443 72.6484 52.8678 72.6484 53.244C72.6484 53.6202 72.7236 53.9512 72.8741 54.2371C73.0321 54.5155 73.2352 54.7299 73.4835 54.8804C73.7393 55.0308 74.0102 55.1061 74.2961 55.1061C74.5895 55.1061 74.8641 55.0346 75.1199 54.8916C75.3757 54.7412 75.5788 54.5305 75.7293 54.2597C75.8798 53.9813 75.955 53.6503 75.955 53.2666ZM84.9012 53.1311C84.9012 53.3568 84.8862 53.56 84.8561 53.7405H80.2855C80.3232 54.192 80.4811 54.5456 80.7595 54.8014C81.0379 55.0572 81.3802 55.1851 81.7865 55.1851C82.3733 55.1851 82.7909 54.933 83.0391 54.4289H84.7432C84.5627 55.0308 84.2166 55.5274 83.705 55.9186C83.1934 56.3023 82.5652 56.4941 81.8203 56.4941C81.2185 56.4941 80.6768 56.3625 80.1953 56.0992C79.7213 55.8283 79.3489 55.4484 79.078 54.9593C78.8147 54.4703 78.683 53.9061 78.683 53.2666C78.683 52.6195 78.8147 52.0515 79.078 51.5625C79.3413 51.0735 79.71 50.6973 80.184 50.434C80.658 50.1706 81.2034 50.039 81.8203 50.039C82.4147 50.039 82.9451 50.1669 83.4116 50.4227C83.8855 50.6785 84.2504 51.0434 84.5062 51.5173C84.7696 51.9838 84.9012 52.5217 84.9012 53.1311ZM83.2648 52.6797C83.2573 52.2735 83.1106 51.9499 82.8247 51.7092C82.5388 51.4609 82.189 51.3368 81.7752 51.3368C81.384 51.3368 81.0529 51.4572 80.7821 51.6979C80.5188 51.9311 80.357 52.2584 80.2968 52.6797H83.2648ZM93.8187 50.0503C94.5861 50.0503 95.203 50.2872 95.6695 50.7612C96.1435 51.2277 96.3804 51.8822 96.3804 52.7249V56.3926H94.8005V52.9393C94.8005 52.4503 94.6764 52.0778 94.4281 51.822C94.1798 51.5587 93.8413 51.4271 93.4124 51.4271C92.9836 51.4271 92.6413 51.5587 92.3855 51.822C92.1372 52.0778 92.013 52.4503 92.013 52.9393V56.3926H90.4331V52.9393C90.4331 52.4503 90.309 52.0778 90.0607 51.822C89.8124 51.5587 89.4739 51.4271 89.045 51.4271C88.6087 51.4271 88.2626 51.5587 88.0068 51.822C87.7585 52.0778 87.6344 52.4503 87.6344 52.9393V56.3926H86.0544V50.1405H87.6344V50.8967C87.8375 50.6333 88.0971 50.4264 88.413 50.276C88.7366 50.1255 89.0902 50.0503 89.4739 50.0503C89.9629 50.0503 90.3993 50.1556 90.783 50.3662C91.1667 50.5694 91.4638 50.8628 91.6745 51.2465C91.8776 50.8854 92.171 50.5957 92.5547 50.3775C92.946 50.1593 93.3673 50.0503 93.8187 50.0503ZM103.861 50.1405L99.9901 59.3493H98.3086L99.6628 56.2346L97.1575 50.1405H98.9292L100.543 54.5079L102.179 50.1405H103.861Z" fill="#6B6F70"/>
</svg>
